<mxfile host="app.diagrams.net" modified="2022-05-26T03:04:58.388Z" agent="5.0 (Windows NT 10.0; Win64; x64) AppleWebKit/537.36 (KHTML, like Gecko) Chrome/101.0.4951.67 Safari/537.36" etag="YoLx9whQsVsNp2MZr16j" version="18.0.2" type="github" pages="4">
  <diagram id="-U58SBkgzO76PhHAiNSV" name="Page-1">
    <mxGraphModel dx="1038" dy="551" grid="0" gridSize="10" guides="1" tooltips="1" connect="1" arrows="1" fold="1" page="1" pageScale="1" pageWidth="827" pageHeight="1169" math="0" shadow="0">
      <root>
        <mxCell id="0" />
        <mxCell id="1" parent="0" />
        <mxCell id="eUxG_0luww3fCtjsu8Pm-1" value="Estimates your Return on Investments " style="swimlane;swimlaneLine=1;" parent="1" vertex="1">
          <mxGeometry x="54" y="270" width="720" height="460" as="geometry" />
        </mxCell>
        <mxCell id="eUxG_0luww3fCtjsu8Pm-2" value="" style="rounded=0;whiteSpace=wrap;html=1;fillColor=default;gradientColor=none;" parent="eUxG_0luww3fCtjsu8Pm-1" vertex="1">
          <mxGeometry x="36" y="70" width="314" height="165" as="geometry" />
        </mxCell>
        <mxCell id="eUxG_0luww3fCtjsu8Pm-3" value="&lt;h1&gt;Return on Investments simulator description&lt;/h1&gt;&lt;p&gt;Lorem ipsum dolor sit amet, consectetur adipisicing elit, sed do eiusmod tempor incididunt ut labore et dolore magna aliqua.&lt;/p&gt;" style="text;html=1;strokeColor=none;fillColor=none;spacing=5;spacingTop=-20;whiteSpace=wrap;overflow=hidden;rounded=0;align=center;" parent="eUxG_0luww3fCtjsu8Pm-1" vertex="1">
          <mxGeometry x="36" y="260" width="314" height="120" as="geometry" />
        </mxCell>
        <mxCell id="eUxG_0luww3fCtjsu8Pm-4" value="Map picture" style="text;html=1;strokeColor=none;fillColor=none;align=center;verticalAlign=middle;whiteSpace=wrap;rounded=0;" parent="eUxG_0luww3fCtjsu8Pm-1" vertex="1">
          <mxGeometry x="63" y="123.75" width="260" height="57.5" as="geometry" />
        </mxCell>
        <mxCell id="eUxG_0luww3fCtjsu8Pm-7" value="" style="rounded=1;whiteSpace=wrap;html=1;fillColor=default;gradientColor=none;" parent="eUxG_0luww3fCtjsu8Pm-1" vertex="1">
          <mxGeometry x="426" y="268.13" width="244" height="23.75" as="geometry" />
        </mxCell>
        <mxCell id="eUxG_0luww3fCtjsu8Pm-6" value="" style="rounded=1;whiteSpace=wrap;html=1;fillColor=default;gradientColor=none;" parent="eUxG_0luww3fCtjsu8Pm-1" vertex="1">
          <mxGeometry x="426" y="219.38" width="244" height="23.75" as="geometry" />
        </mxCell>
        <mxCell id="eUxG_0luww3fCtjsu8Pm-8" value="" style="rounded=1;whiteSpace=wrap;html=1;fillColor=default;gradientColor=none;" parent="eUxG_0luww3fCtjsu8Pm-1" vertex="1">
          <mxGeometry x="514" y="320" width="68" height="30" as="geometry" />
        </mxCell>
        <mxCell id="eUxG_0luww3fCtjsu8Pm-10" value="Enter your roof width" style="text;html=1;strokeColor=none;fillColor=none;align=center;verticalAlign=middle;whiteSpace=wrap;rounded=0;" parent="eUxG_0luww3fCtjsu8Pm-1" vertex="1">
          <mxGeometry x="421" y="216.26" width="144" height="30" as="geometry" />
        </mxCell>
        <mxCell id="eUxG_0luww3fCtjsu8Pm-11" value="Enter your roof lenght" style="text;html=1;strokeColor=none;fillColor=none;align=center;verticalAlign=middle;whiteSpace=wrap;rounded=0;" parent="eUxG_0luww3fCtjsu8Pm-1" vertex="1">
          <mxGeometry x="426" y="265.01" width="134" height="30" as="geometry" />
        </mxCell>
        <mxCell id="eUxG_0luww3fCtjsu8Pm-12" value="Next" style="text;html=1;strokeColor=none;fillColor=none;align=center;verticalAlign=middle;whiteSpace=wrap;rounded=0;" parent="eUxG_0luww3fCtjsu8Pm-1" vertex="1">
          <mxGeometry x="518" y="320" width="60" height="30" as="geometry" />
        </mxCell>
        <mxCell id="eUxG_0luww3fCtjsu8Pm-13" value="" style="rounded=1;whiteSpace=wrap;html=1;fillColor=default;gradientColor=none;" parent="eUxG_0luww3fCtjsu8Pm-1" vertex="1">
          <mxGeometry x="426" y="173.12" width="244" height="23.75" as="geometry" />
        </mxCell>
        <mxCell id="eUxG_0luww3fCtjsu8Pm-14" value="Select your city" style="text;html=1;strokeColor=none;fillColor=none;align=center;verticalAlign=middle;whiteSpace=wrap;rounded=0;" parent="eUxG_0luww3fCtjsu8Pm-1" vertex="1">
          <mxGeometry x="416" y="170" width="124" height="30" as="geometry" />
        </mxCell>
        <mxCell id="eUxG_0luww3fCtjsu8Pm-15" value="" style="triangle;whiteSpace=wrap;html=1;fillColor=default;gradientColor=none;rotation=90;" parent="eUxG_0luww3fCtjsu8Pm-1" vertex="1">
          <mxGeometry x="650.05" y="178.6" width="10.1" height="14.44" as="geometry" />
        </mxCell>
        <mxCell id="eUxG_0luww3fCtjsu8Pm-17" value="&lt;font style=&quot;font-size: 23px;&quot;&gt;&lt;b&gt;Form title&lt;/b&gt;&lt;/font&gt;" style="text;html=1;strokeColor=none;fillColor=none;align=center;verticalAlign=middle;whiteSpace=wrap;rounded=0;" parent="eUxG_0luww3fCtjsu8Pm-1" vertex="1">
          <mxGeometry x="472" y="110" width="152" height="30" as="geometry" />
        </mxCell>
        <mxCell id="jtyO8T9DVfqSR_IaIQtV-1" value="Login" style="text;html=1;strokeColor=none;fillColor=none;align=center;verticalAlign=middle;whiteSpace=wrap;rounded=0;" vertex="1" parent="eUxG_0luww3fCtjsu8Pm-1">
          <mxGeometry x="650.05" y="29" width="60" height="27" as="geometry" />
        </mxCell>
      </root>
    </mxGraphModel>
  </diagram>
  <diagram id="Ll_8QuE_zmTKNSdEeLZw" name="Page-2">
    <mxGraphModel dx="1038" dy="551" grid="0" gridSize="10" guides="1" tooltips="1" connect="1" arrows="1" fold="1" page="1" pageScale="1" pageWidth="827" pageHeight="1169" math="0" shadow="0">
      <root>
        <mxCell id="0" />
        <mxCell id="1" parent="0" />
        <mxCell id="RHQXMn7n2OsbdcrALOwJ-1" value="Estimates your Return on Investments " style="swimlane;swimlaneLine=1;" parent="1" vertex="1">
          <mxGeometry x="50" y="190" width="720" height="460" as="geometry" />
        </mxCell>
        <mxCell id="RHQXMn7n2OsbdcrALOwJ-7" value="" style="rounded=1;whiteSpace=wrap;html=1;fillColor=default;gradientColor=none;" parent="RHQXMn7n2OsbdcrALOwJ-1" vertex="1">
          <mxGeometry x="506" y="125" width="130" height="30" as="geometry" />
        </mxCell>
        <mxCell id="RHQXMn7n2OsbdcrALOwJ-10" value="Show the records" style="text;html=1;strokeColor=none;fillColor=none;align=center;verticalAlign=middle;whiteSpace=wrap;rounded=0;" parent="RHQXMn7n2OsbdcrALOwJ-1" vertex="1">
          <mxGeometry x="513" y="125" width="116" height="30" as="geometry" />
        </mxCell>
        <mxCell id="RHQXMn7n2OsbdcrALOwJ-14" value="&lt;span style=&quot;font-size: 23px;&quot;&gt;&lt;b&gt;You can product about&lt;/b&gt;&lt;/span&gt;" style="text;html=1;strokeColor=none;fillColor=none;align=center;verticalAlign=middle;whiteSpace=wrap;rounded=0;" parent="RHQXMn7n2OsbdcrALOwJ-1" vertex="1">
          <mxGeometry x="66" y="122.5" width="274" height="30" as="geometry" />
        </mxCell>
        <mxCell id="RHQXMn7n2OsbdcrALOwJ-18" value="" style="rounded=1;whiteSpace=wrap;html=1;fontSize=23;fillColor=default;gradientColor=none;" parent="RHQXMn7n2OsbdcrALOwJ-1" vertex="1">
          <mxGeometry x="340" y="125" width="54" height="27.5" as="geometry" />
        </mxCell>
        <mxCell id="RHQXMn7n2OsbdcrALOwJ-19" value="&lt;b&gt;$/year.&lt;/b&gt;" style="text;html=1;strokeColor=none;fillColor=none;align=center;verticalAlign=middle;whiteSpace=wrap;rounded=0;fontSize=23;" parent="RHQXMn7n2OsbdcrALOwJ-1" vertex="1">
          <mxGeometry x="410" y="122.5" width="60" height="30" as="geometry" />
        </mxCell>
        <mxCell id="RHQXMn7n2OsbdcrALOwJ-20" value="" style="endArrow=none;html=1;rounded=0;fontSize=23;" parent="RHQXMn7n2OsbdcrALOwJ-1" edge="1">
          <mxGeometry width="50" height="50" relative="1" as="geometry">
            <mxPoint x="70" y="200" as="sourcePoint" />
            <mxPoint x="650" y="200" as="targetPoint" />
            <Array as="points" />
          </mxGeometry>
        </mxCell>
        <mxCell id="RHQXMn7n2OsbdcrALOwJ-21" value="" style="triangle;whiteSpace=wrap;html=1;fontSize=23;fillColor=default;gradientColor=none;rotation=90;" parent="RHQXMn7n2OsbdcrALOwJ-1" vertex="1">
          <mxGeometry x="357" y="200" width="10" height="30" as="geometry" />
        </mxCell>
        <mxCell id="YLiVy2b18HaKBSu0_AO6-2" value="" style="rounded=1;whiteSpace=wrap;html=1;fontSize=23;fillColor=default;gradientColor=none;" parent="RHQXMn7n2OsbdcrALOwJ-1" vertex="1">
          <mxGeometry x="260" y="407.5" width="153" height="30" as="geometry" />
        </mxCell>
        <mxCell id="YLiVy2b18HaKBSu0_AO6-4" value="" style="rounded=1;whiteSpace=wrap;html=1;fontSize=23;fillColor=default;gradientColor=none;" parent="RHQXMn7n2OsbdcrALOwJ-1" vertex="1">
          <mxGeometry x="440" y="407.5" width="153" height="30" as="geometry" />
        </mxCell>
        <mxCell id="YLiVy2b18HaKBSu0_AO6-6" value="" style="rounded=1;whiteSpace=wrap;html=1;fontSize=23;fillColor=default;gradientColor=none;" parent="RHQXMn7n2OsbdcrALOwJ-1" vertex="1">
          <mxGeometry x="610" y="407.5" width="59" height="30" as="geometry" />
        </mxCell>
        <mxCell id="YLiVy2b18HaKBSu0_AO6-7" value="&lt;font style=&quot;font-size: 10px;&quot;&gt;Contact us&lt;/font&gt;" style="text;html=1;strokeColor=none;fillColor=none;align=center;verticalAlign=middle;whiteSpace=wrap;rounded=0;fontSize=23;" parent="RHQXMn7n2OsbdcrALOwJ-1" vertex="1">
          <mxGeometry x="610" y="411.25" width="60" height="14.5" as="geometry" />
        </mxCell>
        <mxCell id="YLiVy2b18HaKBSu0_AO6-8" value="&lt;font style=&quot;font-size: 14px;&quot;&gt;Lastname&lt;/font&gt;" style="text;html=1;strokeColor=none;fillColor=none;align=center;verticalAlign=middle;whiteSpace=wrap;rounded=0;fontSize=23;" parent="RHQXMn7n2OsbdcrALOwJ-1" vertex="1">
          <mxGeometry x="257" y="403.5" width="100" height="30" as="geometry" />
        </mxCell>
        <mxCell id="YLiVy2b18HaKBSu0_AO6-9" value="&lt;span style=&quot;font-size: 14px;&quot;&gt;Email&lt;/span&gt;" style="text;html=1;strokeColor=none;fillColor=none;align=center;verticalAlign=middle;whiteSpace=wrap;rounded=0;fontSize=23;" parent="RHQXMn7n2OsbdcrALOwJ-1" vertex="1">
          <mxGeometry x="421" y="403.5" width="100" height="30" as="geometry" />
        </mxCell>
        <mxCell id="YLiVy2b18HaKBSu0_AO6-10" value="" style="rounded=1;whiteSpace=wrap;html=1;fontSize=23;fillColor=default;gradientColor=none;" parent="RHQXMn7n2OsbdcrALOwJ-1" vertex="1">
          <mxGeometry x="70" y="407.5" width="153" height="30" as="geometry" />
        </mxCell>
        <mxCell id="YLiVy2b18HaKBSu0_AO6-11" value="&lt;span style=&quot;font-size: 14px;&quot;&gt;Firstname&lt;/span&gt;" style="text;html=1;strokeColor=none;fillColor=none;align=center;verticalAlign=middle;whiteSpace=wrap;rounded=0;fontSize=23;" parent="RHQXMn7n2OsbdcrALOwJ-1" vertex="1">
          <mxGeometry x="60" y="404.5" width="100" height="30" as="geometry" />
        </mxCell>
      </root>
    </mxGraphModel>
  </diagram>
  <diagram id="hQ_LjRuQJaTn_Pxo5Cg0" name="Page-3">
    <mxGraphModel dx="1038" dy="551" grid="0" gridSize="10" guides="1" tooltips="1" connect="1" arrows="1" fold="1" page="1" pageScale="1" pageWidth="827" pageHeight="1169" math="0" shadow="0">
      <root>
        <mxCell id="0" />
        <mxCell id="1" parent="0" />
        <mxCell id="dqjMascVptZnc5XsBRi--1" value="Login to Solar Irradiance Editor" style="swimlane;swimlaneLine=1;" vertex="1" parent="1">
          <mxGeometry x="54" y="270" width="720" height="460" as="geometry" />
        </mxCell>
        <mxCell id="dqjMascVptZnc5XsBRi--16" value="" style="rounded=1;whiteSpace=wrap;html=1;" vertex="1" parent="dqjMascVptZnc5XsBRi--1">
          <mxGeometry x="209" y="41" width="302" height="389" as="geometry" />
        </mxCell>
        <mxCell id="dqjMascVptZnc5XsBRi--2" value="" style="rounded=0;whiteSpace=wrap;html=1;fillColor=default;gradientColor=none;" vertex="1" parent="dqjMascVptZnc5XsBRi--1">
          <mxGeometry x="282" y="74" width="156" height="131" as="geometry" />
        </mxCell>
        <mxCell id="dqjMascVptZnc5XsBRi--4" value="Logo" style="text;html=1;strokeColor=none;fillColor=none;align=center;verticalAlign=middle;whiteSpace=wrap;rounded=0;" vertex="1" parent="dqjMascVptZnc5XsBRi--1">
          <mxGeometry x="313" y="121.38" width="94" height="36.25" as="geometry" />
        </mxCell>
        <mxCell id="dqjMascVptZnc5XsBRi--5" value="" style="rounded=1;whiteSpace=wrap;html=1;fillColor=default;gradientColor=none;" vertex="1" parent="dqjMascVptZnc5XsBRi--1">
          <mxGeometry x="240" y="312.87" width="244" height="23.75" as="geometry" />
        </mxCell>
        <mxCell id="dqjMascVptZnc5XsBRi--6" value="" style="rounded=1;whiteSpace=wrap;html=1;fillColor=default;gradientColor=none;" vertex="1" parent="dqjMascVptZnc5XsBRi--1">
          <mxGeometry x="240" y="264.12" width="244" height="23.75" as="geometry" />
        </mxCell>
        <mxCell id="dqjMascVptZnc5XsBRi--7" value="" style="rounded=1;whiteSpace=wrap;html=1;fillColor=default;gradientColor=none;" vertex="1" parent="dqjMascVptZnc5XsBRi--1">
          <mxGeometry x="328" y="364.74" width="68" height="30" as="geometry" />
        </mxCell>
        <mxCell id="dqjMascVptZnc5XsBRi--8" value="Email" style="text;html=1;strokeColor=none;fillColor=none;align=center;verticalAlign=middle;whiteSpace=wrap;rounded=0;" vertex="1" parent="dqjMascVptZnc5XsBRi--1">
          <mxGeometry x="235" y="261" width="68" height="30" as="geometry" />
        </mxCell>
        <mxCell id="dqjMascVptZnc5XsBRi--9" value="Password" style="text;html=1;strokeColor=none;fillColor=none;align=center;verticalAlign=middle;whiteSpace=wrap;rounded=0;" vertex="1" parent="dqjMascVptZnc5XsBRi--1">
          <mxGeometry x="240" y="309.75" width="71" height="30" as="geometry" />
        </mxCell>
        <mxCell id="dqjMascVptZnc5XsBRi--10" value="Login" style="text;html=1;strokeColor=none;fillColor=none;align=center;verticalAlign=middle;whiteSpace=wrap;rounded=0;" vertex="1" parent="dqjMascVptZnc5XsBRi--1">
          <mxGeometry x="332" y="364.74" width="60" height="30" as="geometry" />
        </mxCell>
      </root>
    </mxGraphModel>
  </diagram>
  <diagram id="lzNONv_W_hBNWM9x3KZ4" name="Page-4">
    <mxGraphModel dx="1038" dy="551" grid="0" gridSize="10" guides="1" tooltips="1" connect="1" arrows="1" fold="1" page="1" pageScale="1" pageWidth="827" pageHeight="1169" math="0" shadow="0">
      <root>
        <mxCell id="0" />
        <mxCell id="1" parent="0" />
        <mxCell id="0-TIRytPlfl6xrbl8Q8B-1" value="Simulation data editor" style="swimlane;" vertex="1" parent="1">
          <mxGeometry x="45" y="222" width="720" height="521" as="geometry" />
        </mxCell>
        <mxCell id="wnXbd1kdDNvTZcBu3Cli-37" value="" style="rounded=0;whiteSpace=wrap;html=1;" vertex="1" parent="0-TIRytPlfl6xrbl8Q8B-1">
          <mxGeometry x="49" y="189" width="639" height="294.5" as="geometry" />
        </mxCell>
        <mxCell id="wnXbd1kdDNvTZcBu3Cli-15" value="" style="rounded=1;whiteSpace=wrap;html=1;" vertex="1" parent="0-TIRytPlfl6xrbl8Q8B-1">
          <mxGeometry x="513" y="352" width="58" height="22" as="geometry" />
        </mxCell>
        <mxCell id="wnXbd1kdDNvTZcBu3Cli-5" value="Marseille, France" style="text;html=1;strokeColor=none;fillColor=none;align=center;verticalAlign=middle;whiteSpace=wrap;rounded=0;" vertex="1" parent="0-TIRytPlfl6xrbl8Q8B-1">
          <mxGeometry x="82" y="209" width="139" height="30" as="geometry" />
        </mxCell>
        <mxCell id="wnXbd1kdDNvTZcBu3Cli-8" value="Rome, Italy" style="text;html=1;strokeColor=none;fillColor=none;align=center;verticalAlign=middle;whiteSpace=wrap;rounded=0;" vertex="1" parent="0-TIRytPlfl6xrbl8Q8B-1">
          <mxGeometry x="82" y="412.5" width="110" height="33" as="geometry" />
        </mxCell>
        <mxCell id="wnXbd1kdDNvTZcBu3Cli-7" value="Barcelon, Spain" style="text;html=1;strokeColor=none;fillColor=none;align=center;verticalAlign=middle;whiteSpace=wrap;rounded=0;" vertex="1" parent="0-TIRytPlfl6xrbl8Q8B-1">
          <mxGeometry x="82" y="348" width="134" height="30" as="geometry" />
        </mxCell>
        <mxCell id="wnXbd1kdDNvTZcBu3Cli-6" value="Casa-blanca, Morocco" style="text;html=1;strokeColor=none;fillColor=none;align=center;verticalAlign=middle;whiteSpace=wrap;rounded=0;" vertex="1" parent="0-TIRytPlfl6xrbl8Q8B-1">
          <mxGeometry x="82" y="270.5" width="164" height="30" as="geometry" />
        </mxCell>
        <mxCell id="wnXbd1kdDNvTZcBu3Cli-11" value="" style="rounded=1;whiteSpace=wrap;html=1;" vertex="1" parent="0-TIRytPlfl6xrbl8Q8B-1">
          <mxGeometry x="507" y="213" width="58" height="22" as="geometry" />
        </mxCell>
        <mxCell id="wnXbd1kdDNvTZcBu3Cli-12" value="Edit" style="text;html=1;strokeColor=none;fillColor=none;align=center;verticalAlign=middle;whiteSpace=wrap;rounded=0;" vertex="1" parent="0-TIRytPlfl6xrbl8Q8B-1">
          <mxGeometry x="516" y="215.5" width="36" height="17" as="geometry" />
        </mxCell>
        <mxCell id="wnXbd1kdDNvTZcBu3Cli-17" value="" style="rounded=1;whiteSpace=wrap;html=1;" vertex="1" parent="0-TIRytPlfl6xrbl8Q8B-1">
          <mxGeometry x="513" y="423.5" width="58" height="22" as="geometry" />
        </mxCell>
        <mxCell id="wnXbd1kdDNvTZcBu3Cli-18" value="Edit" style="text;html=1;strokeColor=none;fillColor=none;align=center;verticalAlign=middle;whiteSpace=wrap;rounded=0;" vertex="1" parent="0-TIRytPlfl6xrbl8Q8B-1">
          <mxGeometry x="524" y="426" width="36" height="17" as="geometry" />
        </mxCell>
        <mxCell id="wnXbd1kdDNvTZcBu3Cli-16" value="Edit" style="text;html=1;strokeColor=none;fillColor=none;align=center;verticalAlign=middle;whiteSpace=wrap;rounded=0;" vertex="1" parent="0-TIRytPlfl6xrbl8Q8B-1">
          <mxGeometry x="524" y="354.5" width="36" height="17" as="geometry" />
        </mxCell>
        <mxCell id="wnXbd1kdDNvTZcBu3Cli-13" value="" style="rounded=1;whiteSpace=wrap;html=1;" vertex="1" parent="0-TIRytPlfl6xrbl8Q8B-1">
          <mxGeometry x="513" y="274.5" width="58" height="22" as="geometry" />
        </mxCell>
        <mxCell id="wnXbd1kdDNvTZcBu3Cli-14" value="Edit" style="text;html=1;strokeColor=none;fillColor=none;align=center;verticalAlign=middle;whiteSpace=wrap;rounded=0;" vertex="1" parent="0-TIRytPlfl6xrbl8Q8B-1">
          <mxGeometry x="524" y="277" width="36" height="17" as="geometry" />
        </mxCell>
        <mxCell id="wnXbd1kdDNvTZcBu3Cli-22" value="" style="rounded=1;whiteSpace=wrap;html=1;" vertex="1" parent="0-TIRytPlfl6xrbl8Q8B-1">
          <mxGeometry x="597" y="274.5" width="58" height="22" as="geometry" />
        </mxCell>
        <mxCell id="wnXbd1kdDNvTZcBu3Cli-21" value="" style="rounded=1;whiteSpace=wrap;html=1;" vertex="1" parent="0-TIRytPlfl6xrbl8Q8B-1">
          <mxGeometry x="597" y="352" width="58" height="22" as="geometry" />
        </mxCell>
        <mxCell id="wnXbd1kdDNvTZcBu3Cli-20" value="" style="rounded=1;whiteSpace=wrap;html=1;" vertex="1" parent="0-TIRytPlfl6xrbl8Q8B-1">
          <mxGeometry x="598" y="213" width="58" height="22" as="geometry" />
        </mxCell>
        <mxCell id="wnXbd1kdDNvTZcBu3Cli-23" value="" style="rounded=1;whiteSpace=wrap;html=1;" vertex="1" parent="0-TIRytPlfl6xrbl8Q8B-1">
          <mxGeometry x="597" y="423.5" width="58" height="22" as="geometry" />
        </mxCell>
        <mxCell id="wnXbd1kdDNvTZcBu3Cli-24" value="Delete" style="text;html=1;strokeColor=none;fillColor=none;align=center;verticalAlign=middle;whiteSpace=wrap;rounded=0;" vertex="1" parent="0-TIRytPlfl6xrbl8Q8B-1">
          <mxGeometry x="600" y="209" width="60" height="30" as="geometry" />
        </mxCell>
        <mxCell id="wnXbd1kdDNvTZcBu3Cli-26" value="Delete" style="text;html=1;strokeColor=none;fillColor=none;align=center;verticalAlign=middle;whiteSpace=wrap;rounded=0;" vertex="1" parent="0-TIRytPlfl6xrbl8Q8B-1">
          <mxGeometry x="595" y="269" width="60" height="30" as="geometry" />
        </mxCell>
        <mxCell id="wnXbd1kdDNvTZcBu3Cli-27" value="Delete" style="text;html=1;strokeColor=none;fillColor=none;align=center;verticalAlign=middle;whiteSpace=wrap;rounded=0;" vertex="1" parent="0-TIRytPlfl6xrbl8Q8B-1">
          <mxGeometry x="596" y="348" width="60" height="30" as="geometry" />
        </mxCell>
        <mxCell id="wnXbd1kdDNvTZcBu3Cli-28" value="Delete" style="text;html=1;strokeColor=none;fillColor=none;align=center;verticalAlign=middle;whiteSpace=wrap;rounded=0;" vertex="1" parent="0-TIRytPlfl6xrbl8Q8B-1">
          <mxGeometry x="596" y="419.5" width="60" height="30" as="geometry" />
        </mxCell>
        <mxCell id="wnXbd1kdDNvTZcBu3Cli-29" value="" style="rounded=0;whiteSpace=wrap;html=1;" vertex="1" parent="0-TIRytPlfl6xrbl8Q8B-1">
          <mxGeometry x="49" y="97" width="640" height="63" as="geometry" />
        </mxCell>
        <mxCell id="wnXbd1kdDNvTZcBu3Cli-31" value="Add Country..." style="text;html=1;strokeColor=none;fillColor=none;align=center;verticalAlign=middle;whiteSpace=wrap;rounded=0;" vertex="1" parent="0-TIRytPlfl6xrbl8Q8B-1">
          <mxGeometry x="149" y="97" width="123.5" height="62" as="geometry" />
        </mxCell>
        <mxCell id="wnXbd1kdDNvTZcBu3Cli-32" value="Add City..." style="text;html=1;strokeColor=none;fillColor=none;align=center;verticalAlign=middle;whiteSpace=wrap;rounded=0;" vertex="1" parent="0-TIRytPlfl6xrbl8Q8B-1">
          <mxGeometry x="457" y="97" width="123.5" height="62" as="geometry" />
        </mxCell>
        <mxCell id="wnXbd1kdDNvTZcBu3Cli-35" value="You are logged as : Member#1" style="text;html=1;strokeColor=none;fillColor=none;align=center;verticalAlign=middle;whiteSpace=wrap;rounded=0;" vertex="1" parent="0-TIRytPlfl6xrbl8Q8B-1">
          <mxGeometry x="542" y="27" width="170" height="22" as="geometry" />
        </mxCell>
        <mxCell id="wnXbd1kdDNvTZcBu3Cli-36" value="Logout" style="text;html=1;strokeColor=none;fillColor=none;align=center;verticalAlign=middle;whiteSpace=wrap;rounded=0;" vertex="1" parent="0-TIRytPlfl6xrbl8Q8B-1">
          <mxGeometry x="650" y="49" width="60" height="30" as="geometry" />
        </mxCell>
        <mxCell id="wnXbd1kdDNvTZcBu3Cli-39" value="" style="endArrow=none;html=1;rounded=0;entryX=0.5;entryY=0;entryDx=0;entryDy=0;exitX=0.5;exitY=1;exitDx=0;exitDy=0;" edge="1" parent="0-TIRytPlfl6xrbl8Q8B-1" source="wnXbd1kdDNvTZcBu3Cli-29" target="wnXbd1kdDNvTZcBu3Cli-29">
          <mxGeometry width="50" height="50" relative="1" as="geometry">
            <mxPoint x="352" y="154" as="sourcePoint" />
            <mxPoint x="402" y="104" as="targetPoint" />
          </mxGeometry>
        </mxCell>
      </root>
    </mxGraphModel>
  </diagram>
</mxfile>
